<svg xmlns:dc="http://purl.org/dc/elements/1.1/" xmlns:cc="http://creativecommons.org/ns#" xmlns:rdf="http://www.w3.org/1999/02/22-rdf-syntax-ns#" xmlns:svg="http://www.w3.org/2000/svg" xmlns="http://www.w3.org/2000/svg" viewBox="0 0 80 80" height="100%" width="100%" xml:space="preserve" version="1.1" id="svg2" xmlns:xlink="http://www.w3.org/1999/xlink" preserveAspectRatio="xMidYMid meet"><rect id="svgEditorBackground" x="0" y="0" width="357.14666748046875" height="347.17333984375" style="fill: none; stroke: none;"/><metadata id="metadata8"><rdf:RDF><cc:Work rdf:about=""><dc:format>image/svg+xml</dc:format><dc:type rdf:resource="http://purl.org/dc/dcmitype/StillImage"/></cc:Work></rdf:RDF></metadata><defs id="defs6"><clipPath id="clipPath18" clipPathUnits="userSpaceOnUse"><path id="path20" d="M 0,2603.79 0,0 l 2678.55,0 0,2603.79 -2678.55,0 z"/></clipPath></defs><g transform="matrix(1.3333333,0,0,-1.3333333,0,347.17333)" id="g10"><g transform="scale(0.1)" id="g12"><g id="g14"><g clip-path="url(#clipPath18)" id="g16"><path id="path22" style="fill:#181210;fill-opacity:1;fill-rule:nonzero;stroke:none" d="M0,2603.7900390625l0,-257.300048828125l171.14500427246094,0l0,-85.780029296875l-171.14500427246094,0l0,-85.780029296875l256.718994140625,0l0,257.340087890625l-171.13699340820312,0l0,85.739990234375l427.8559875488281,0l0,-85.739990234375l-171.12600708007812,0l0,-257.340087890625l256.7149963378906,0l0,85.780029296875l-171.12100219726562,0l0,85.780029296875l171.12100219726562,0l0,257.300048828125l-599.0269775390625,0"/><path id="path24" style="fill:#181210;fill-opacity:1;fill-rule:nonzero;stroke:none" d="m 0,2003.38 599.027,0 0,85.7734 -599.027,0 0,-85.7734 z"/></g></g></g></g></svg>